<?xml version="1.0" encoding="UTF-8"?>
<svg xmlns="http://www.w3.org/2000/svg" viewBox="0 0 369.55 705.77">
  <defs>
    <style>
      .cls-1 {
        fill: #faeae0;
      }

      .cls-2, .cls-3 {
        fill: #231f20;
      }

      .cls-4 {
        fill: #f8bdb3;
      }

      .cls-5 {
        isolation: isolate;
      }

      .cls-6 {
        fill: none;
        stroke: #4b2510;
        stroke-linecap: round;
        stroke-miterlimit: 10;
        stroke-width: 5px;
      }

      .cls-3, .cls-7 {
        mix-blend-mode: overlay;
        opacity: .5;
      }

      .cls-8 {
        fill: #fff;
      }

      .cls-9 {
        opacity: .3;
      }

      .cls-10 {
        opacity: .1;
      }

      .cls-11 {
        fill: #e25757;
      }
    </style>
  </defs>
  <g class="cls-5">
    <g id="Layer_2" data-name="Layer 2">
      <g id="Background">
        <ellipse class="cls-3" cx="179.35" cy="672.93" rx="163.36" ry="32.84"/>
        <g>
          <g>
            <path class="cls-4" d="M146.99,588.2s-2.9,15.08,0,40.6c2.9,25.52,12.76,47.56-27.26,50.46-40.02,2.9-49.3-19.14-48.72-31.32.58-12.18,8.12-52.78,8.12-70.76s2.13-42.92,7.93-62.93"/>
            <path class="cls-4" d="M219.01,588.2s2.9,15.08,0,40.6c-2.9,25.52-12.76,47.56,27.26,50.46,40.02,2.9,49.3-19.14,48.72-31.32-.58-12.18-8.12-52.78-8.12-70.76s-2.13-42.92-7.93-62.93"/>
            <path class="cls-3" d="M218.9,629.76c24.21-4.62,45.92-10.42,55.15-24.09,7.97-11.81,13.69-20.67,12.31-44.43-.92-15.21-3.19-32.4-7.42-46.98l-59.93,73.95s2.9,15.08,0,40.6c-.04.32-.07.64-.11.96Z"/>
            <path class="cls-3" d="M87.06,514.25c-5.8,20.01-7.93,44.95-7.93,62.93,0,3.33-.91,15.49-1.33,20.04,6.49,19.85,20.63,23.06,46.88,32.9,6.99,2.62,17.2,6.97,23.88,7.86-.12-.9-1.46-8.28-1.57-9.19-2.9-25.52,0-40.6,0-40.6l-59.93-73.95Z"/>
            <path class="cls-6" d="M146.99,588.2s-2.9,15.08,0,40.6c2.9,25.52,12.76,47.56-27.26,50.46-40.02,2.9-49.3-19.14-48.72-31.32.58-12.18,8.12-52.78,8.12-70.76s2.13-42.92,7.93-62.93"/>
            <path class="cls-6" d="M219.01,588.2s2.9,15.08,0,40.6c-2.9,25.52-12.76,47.56,27.26,50.46,40.02,2.9,49.3-19.14,48.72-31.32-.58-12.18-8.12-52.78-8.12-70.76s-2.13-42.92-7.93-62.93"/>
            <path class="cls-4" d="M137.92,441.84s-39.56,13.41-52.97,73.76c-13.41,60.35-1.34,90.52,45.6,102.59,46.94,12.07,118.69,4.69,138.13-25.48,19.45-30.17,16.76-77.11-3.35-109.3-20.12-32.19-33.53-44.26-80.47-43.59-46.94.67-46.94,2.01-46.94,2.01Z"/>
            <path class="cls-6" d="M182.79,623.66c36.64-.83,72.91-10.81,85.89-30.95,19.45-30.17,16.76-77.11-3.35-109.3-20.12-32.19-33.53-44.26-80.47-43.59-.35,0-.7.01-1.04.02"/>
            <path class="cls-6" d="M183.82,439.85c-45.9.68-45.9,2-45.9,2,0,0-39.56,13.41-52.97,73.76-13.41,60.35-1.34,90.52,45.6,102.59,15.61,4.02,33.98,5.88,52.24,5.47"/>
            <g>
              <path class="cls-1" d="M180.57,447.9s-42.19-1.06-55.64,34.44c-13.45,35.5-26.89,65.18-15.3,89.55,11.59,24.37,30.14,36.56,75.11,34.44,44.97-2.12,70.01-13.25,71.4-41.33,1.39-28.08-3.71-60.41-16.23-79.48-20.85-31.77-43.12-37.62-59.35-37.62Z"/>
              <path class="cls-6" d="M256.14,565.01c1.39-28.08-3.71-60.41-16.23-79.48-20.85-31.77-43.12-37.62-59.35-37.62,0,0-42.19-1.06-55.64,34.44-13.45,35.5-26.89,65.18-15.3,89.55,11.59,24.37,30.14,36.56,75.11,34.44,44.97-2.12,70.01-13.25,71.4-41.33"/>
            </g>
          </g>
          <g>
            <path class="cls-4" d="M105.74,266.24S-32.06,152.8,11.06,65.66C54.18-21.47,140.03,6.71,159.46,21.93c15.7,12.3,31.26,61.7-7.37,65.29-38.63,3.59-67.37,19.76-52.1,49.41,15.27,29.64,53,95.22,53,95.22l-47.25,34.39Z"/>
            <path class="cls-6" d="M160.45,22.7c16.02,12.2,29.95,60.95-8.36,64.52-38.63,3.59-67.37,19.76-52.1,49.41,15.27,29.64,53,95.22,53,95.22l-35.93,17.97"/>
            <path class="cls-6" d="M101.74,259.39S-32.06,152.8,11.06,65.66C54.18-21.47,143.29,10.25,159.46,21.93"/>
            <path class="cls-1" d="M68.76,52.22c-28.94,30.66-19.59,76.22,3.13,107,22.73,30.78,48.33,57.22,48.33,57.22l16.84-14.87c-10.46-18.36-29.02-51.19-38.2-69-13.2-25.63,11.04-41.18,44.43-44.28,3.61-.34,7.29.42,9.87-.76,4.81-8.04,8.92-21.68-1.23-35.31-10.15-13.63-54.24-30.66-83.17,0Z"/>
            <path class="cls-6" d="M154.54,85.02c4.1-8.19,6.55-20.5-2.61-32.8-10.15-13.63-54.24-30.66-83.17,0-28.94,30.66-19.59,76.22,3.13,107,22.73,30.78,48.33,57.22,48.33,57.22l16.47-12.45"/>
            <path class="cls-6" d="M144.18,216.44c-12.1-21.23-33.57-59.2-44.19-79.81-15.27-29.64,13.47-45.81,52.1-49.41,4.18-.39,7.72-1.32,10.71-2.69"/>
          </g>
          <g>
            <path class="cls-4" d="M211.38,218.37s91.26-53.63,69.17-106.9c-15.27-36.83-71.3-19.19-88.03-41.32C164.67,33.32,235.07-.97,270.67,2.78c51.2,5.39,93.42,50.3,91.63,102.4-2.19,63.39-87.24,144.62-87.24,144.62l-63.67-31.44Z"/>
            <path class="cls-6" d="M267.97,233.64l-56.59-15.27s91.26-53.63,69.17-106.9c-15.27-36.83-71.3-19.19-88.03-41.32"/>
            <path class="cls-6" d="M192.51,70.15C164.67,33.32,235.07-.97,270.67,2.78c51.2,5.39,93.42,50.3,91.63,102.4-2.19,63.39-87.24,144.62-87.24,144.62"/>
            <path class="cls-1" d="M240.82,37.76c-31.54,1.85-29.44,27.58-25.42,42.71,18.5,6.82,54.74,2.34,65.69,32.85,18.25,50.85-61.93,100.08-61.93,100.08l43.34,14c20.82-21.54,65.75-68.39,68.03-121.11,2.01-46.51-44.86-71.16-89.72-68.53Z"/>
            <path class="cls-6" d="M215.41,80.47c18.5,6.82,54.74,2.34,65.69,32.85,18.25,50.85-61.93,100.08-61.93,100.08l43.34,14"/>
            <path class="cls-6" d="M262.51,227.39c20.82-21.54,65.75-68.39,68.03-121.11,2.01-46.51-44.86-71.16-89.72-68.53-31.54,1.85-29.44,27.58-25.42,42.71"/>
          </g>
          <g>
            <g>
              <g>
                <path class="cls-4" d="M186.15,461.48c.28.01.57.03.85.04,0,0,113.77,1.38,144.24-43.99,22.94-34.18,15.53-83.76,4.55-112.94-11.89-31.61-57.63-128.76-140.94-127.69-.32,0-.64,0-.95.02"/>
                <path class="cls-4" d="M193.9,176.92c-82.08,1.61-140.58,73.3-157.62,134.08-18.02,64.29-6.16,90.61,20.93,116.37,26.95,25.62,76.33,31.68,128.94,34.11"/>
              </g>
              <path class="cls-6" d="M194.85,176.9c-82.58,1.07-141.47,73.08-158.57,134.1-18.02,64.29-6.16,90.61,20.93,116.37,27.09,25.76,76.87,26.37,129.79,28.77,0,0,113.77,6.76,144.24-38.62,22.94-34.18,15.53-83.76,4.55-112.94-11.89-31.61-57.63-128.76-140.94-127.69"/>
            </g>
            <g>
              <path class="cls-4" d="M34.25,329.18s-39.77,16.26-23.86,62.58c15.91,46.33,81.94,61.77,172.62,66.65,90.69,4.88,175.8-23.57,182.96-64.62,7.16-41.04-23.86-64.62-23.86-64.62"/>
              <g class="cls-7">
                <path class="cls-2" d="M184.61,429.13c-112-3.81-157.03-23.05-177.86-61.4-.47,6.91.5,14.88,3.64,24.03,15.91,46.33,81.94,61.77,172.62,66.65,90.69,4.88,175.8-23.57,182.96-64.62.84-4.84,1.14-9.43,1.04-13.78-28.25,26.83-54.82,53.45-182.4,49.11Z"/>
              </g>
              <path class="cls-6" d="M34.25,329.18s-39.77,16.26-23.86,62.58c15.91,46.33,81.94,61.77,172.62,66.65,90.69,4.88,175.8-23.57,182.96-64.62,7.16-41.04-23.86-64.62-23.86-64.62"/>
            </g>
          </g>
          <g>
            <path class="cls-11" d="M167.89,368.39l13.36-1.82,12.21-12.09,11.64,14.72,12.78-.81s.19,45.29-26.02,45.29-23.97-45.29-23.97-45.29Z"/>
            <path class="cls-6" d="M154.1,358.54c2.66,5.27,12.87,10.38,18.36,10.5,2.18.05,7.36-1.81,9.38-2.81,5.36-2.65,9.31-8.06,11.64-13.56"/>
            <path class="cls-6" d="M193.65,353.3c1.95,9,7.81,12.97,15.13,15.24,7.05,2.19,19.56-3.31,23.49-9.29"/>
            <path class="cls-6" d="M167.89,368.39l13.36-1.82,12.21-12.09,11.64,14.72,12.78-.81s.19,45.29-26.02,45.29-23.97-45.29-23.97-45.29Z"/>
          </g>
          <g>
            <path class="cls-4" d="M120.28,460.08l-16.39,32.49s-73.8-45.73-48.33-97.21c25.47-51.48,78.12-32.74,87.67-25.84,9.55,6.9,18.47,36.45-4.35,38.57-22.82,2.12-27.87,27.13-25.13,33.78"/>
            <path class="cls-6" d="M143.47,369.69c9.46,7.21,18.05,36.29-4.59,38.4-22.82,2.12-25.52,22.83-23.18,33.39,1.17,5.27,2.62,14.01,4.69,16.81"/>
            <path class="cls-6" d="M94.73,485.35s-64.64-38.51-39.17-89.99c25.47-51.48,78.12-32.74,87.67-25.84"/>
          </g>
          <g>
            <path class="cls-4" d="M238.73,459s31.74-10.93,22.41-31.93c-9.56-21.53-31.07-9.4-40.95-22.47-16.45-21.76,25.14-42.02,46.17-39.8,30.25,3.18,55.19,29.72,54.13,60.5-1.29,37.45-45.52,81.71-45.52,81.71l-36.25-48Z"/>
            <path class="cls-6" d="M241.7,458.79c9.5-6.51,26.16-13.76,19.44-29.96-9.02-21.76-31.07-11.15-40.95-24.22"/>
            <path class="cls-6" d="M220.19,404.6c-16.45-21.76,25.14-42.02,46.17-39.8,30.25,3.18,55.19,29.72,54.13,60.5-1.29,37.45-45.52,81.71-45.52,81.71"/>
          </g>
          <g>
            <path class="cls-2" d="M141.3,315.89c.41,3.26-12.26-2.74-26.13-1-13.86,1.74-22.98,11.47-23.39,8.21-.41-3.26,10.52-15.43,24.39-17.17s24.72,6.69,25.13,9.95Z"/>
            <path class="cls-8" d="M130.7,312.11c-.03,1.23-3.51-.13-8.76-.28s-7.09.06-7.06-1.17,2.69-2.24,7.94-2.1,7.91,2.31,7.88,3.54Z"/>
            <path class="cls-8" d="M110.96,312.25c0,1.11-2.44,2.56-3.43,2.56s-1.79-.9-1.79-2,.8-2,1.79-2,3.43.34,3.43,1.45Z"/>
          </g>
          <g>
            <path class="cls-2" d="M239.49,315.89c-.41,3.26,12.26-2.74,26.13-1,13.86,1.74,22.98,11.47,23.39,8.21s-10.52-15.43-24.39-17.17c-13.86-1.74-24.72,6.69-25.13,9.95Z"/>
            <path class="cls-8" d="M250.09,312.11c.03,1.23,3.51-.13,8.76-.28s7.09.06,7.06-1.17c-.03-1.23-2.69-2.24-7.94-2.1-5.24.14-7.91,2.31-7.88,3.54Z"/>
            <path class="cls-8" d="M269.82,312.25c0,1.11,2.44,2.56,3.43,2.56s1.79-.9,1.79-2-.8-2-1.79-2c-.99,0-3.43.34-3.43,1.45Z"/>
          </g>
          <g>
            <g class="cls-10">
              <path class="cls-11" d="M249.91,34.97c-40.73-.19-63.01,31.8-65.24,35.16-2.5-3.17-27.34-33.22-67.91-29.68-42.82,3.73-77.81,38.31-57.69,96.85,19.4,56.42,125.19,110.79,132.85,114.67v.26s.13-.07.24-.14c.11.06.24.12.24.12v-.26c7.3-4.49,108.27-67.37,122.97-125.2,15.24-60.01-22.47-91.59-65.45-91.79Z"/>
            </g>
            <g class="cls-10">
              <path class="cls-11" d="M241.61,49.65c-35.29-.16-54.6,27.55-56.53,30.47-2.17-2.75-23.69-28.78-58.84-25.72-37.1,3.23-67.42,33.19-49.98,83.92,16.81,48.89,108.48,96,115.11,99.35v.23s.11-.06.21-.12c.1.05.21.1.21.1v-.23c6.33-3.89,93.82-58.37,106.55-108.48,13.21-51.99-19.47-79.36-56.71-79.53Z"/>
            </g>
            <g class="cls-9">
              <path class="cls-11" d="M233.29,64.37c-29.83-.14-46.16,23.3-47.79,25.76-1.83-2.32-20.03-24.33-49.75-21.74-31.37,2.73-57,28.06-42.26,70.95,14.21,41.34,91.72,81.16,97.32,84v.19s.09-.05.18-.1c.08.04.17.09.17.09v-.19c5.35-3.29,79.32-49.35,90.08-91.72,11.17-43.96-16.46-67.1-47.95-67.24Z"/>
            </g>
            <g class="cls-9">
              <path class="cls-11" d="M222.24,83.91c-22.6-.1-34.96,17.64-36.2,19.51-1.39-1.76-15.17-18.43-37.68-16.47-23.76,2.07-43.18,21.25-32.01,53.74,10.76,31.31,69.47,61.48,73.72,63.62v.14s.07-.04.13-.08c.06.03.13.07.13.07v-.14c4.05-2.49,60.08-37.38,68.23-69.47,8.46-33.3-12.47-50.82-36.32-50.93Z"/>
            </g>
            <path class="cls-11" d="M207.44,110.09c-12.9-.06-19.96,10.07-20.67,11.14-.79-1-8.66-10.52-21.51-9.4-13.57,1.18-24.65,12.13-18.28,30.68,6.14,17.88,39.66,35.1,42.09,36.33v.08s.04-.02.08-.04c.04.02.08.04.08.04v-.08c2.31-1.42,34.3-21.34,38.95-39.66,4.83-19.01-7.12-29.01-20.74-29.08Z"/>
          </g>
        </g>
      </g>
    </g>
  </g>
</svg>